<svg width="938" height="509" viewBox="0 0 938 509" fill="none" xmlns="http://www.w3.org/2000/svg">
<path d="M229.569 159.88L344.047 328.775H265.71L191.088 216.228L41.7437 0H119.622L191.088 116.818L262.095 0H340.431L229.569 159.88ZM38.1281 328.775L127.868 195.155L185.59 224.474L116.007 328.775H38.1281Z" fill="white"/>
<path d="M608.784 0H658.259V41.2299L510.29 264.329L426.456 138.349V328.775H361.862V0H411.338L510.29 148.886L608.784 0ZM593.666 328.775V152.092L658.259 107.656V328.775H593.666Z" fill="white"/>
<path d="M2.06641 20.3056L94.1064 158.093L2.06718 292.255L2.06641 20.3056Z" fill="#FE0089"/>
<path d="M835.431 137.433C850.091 141.403 863.529 145.832 875.745 150.718C888.267 155.605 898.956 161.56 907.813 168.584C916.975 175.609 923.999 184.007 928.886 193.781C934.078 203.554 936.674 215.159 936.674 228.597V229.971C936.674 244.631 933.62 258.069 927.511 270.285C921.709 282.501 913.463 293.038 902.773 301.894C892.39 310.446 880.021 317.165 865.667 322.051C851.618 326.632 836.195 328.923 819.397 328.923C803.822 328.923 788.857 327.091 774.503 323.426C760.454 319.455 747.627 314.416 736.021 308.308C724.416 301.894 714.185 294.717 705.328 286.777C696.777 278.836 690.21 270.59 685.629 262.039L739.228 228.139C745.031 234.552 750.834 240.355 756.636 245.547C762.439 250.433 768.547 254.709 774.961 258.374C781.374 261.733 788.399 264.329 796.034 266.162C803.669 267.994 812.068 268.911 821.23 268.911C827.033 268.911 832.835 268.3 838.638 267.078C844.746 265.856 850.244 263.871 855.13 261.123C860.017 258.374 863.987 255.015 867.041 251.044C870.095 246.769 871.622 241.577 871.622 235.469C871.622 231.193 870.553 227.07 868.415 223.1C866.277 219.129 862.612 215.312 857.421 211.647C852.229 207.677 845.204 204.012 836.347 200.652C832.758 199.167 828.793 197.707 824.452 196.272L859.383 160.206L766.541 179.704C763.783 178.765 761.092 177.807 758.469 176.83C745.336 171.639 734.189 165.53 725.027 158.506C715.865 151.176 708.84 142.472 703.954 132.394C699.067 122.315 696.624 110.405 696.624 96.6612C696.624 81.6963 699.373 68.2584 704.87 56.3475C710.673 44.1313 718.613 33.9001 728.692 25.6542C738.77 17.4082 750.528 11.1474 763.966 6.87167C777.709 2.29056 792.369 0 807.945 0C824.131 0 838.791 1.83244 851.923 5.49733C865.056 9.1622 876.814 13.896 887.198 19.6987C897.582 25.1961 906.591 31.6096 914.226 38.9394C922.167 45.9637 928.733 52.8354 933.925 59.5543L881.242 93.4544C868.11 80.9328 855.588 72.2287 843.677 67.3422C832.072 62.1502 819.856 59.5543 807.028 59.5543C799.088 59.5543 792.216 60.6232 786.414 62.7611C780.916 64.5935 776.335 67.0368 772.67 70.0908C769.005 72.8395 766.104 76.0462 763.966 79.7111C762.134 83.376 761.217 86.8882 761.217 90.2477C761.217 96.3558 762.744 101.7 765.799 106.282C769.158 110.557 773.892 114.527 780 118.192C786.414 121.857 794.201 125.217 803.364 128.271C812.831 131.325 823.521 134.379 835.431 137.433Z" fill="white"/>
<path d="M0 372.312H32.808V504.298H0V372.312ZM47.1379 504.298H21.1178V476.015H46.0066C51.0346 476.015 55.8741 475.387 60.5251 474.13C65.3017 472.873 69.4498 470.799 72.9695 467.908C76.6148 465.016 79.5059 461.183 81.6428 456.406C83.7798 451.504 84.8482 445.47 84.8482 438.305C84.8482 431.14 83.7798 425.169 81.6428 420.393C79.5059 415.49 76.6148 411.593 72.9695 408.702C69.4498 405.811 65.3017 403.737 60.5251 402.48C55.8741 401.223 51.0346 400.595 46.0066 400.595H21.1178V372.312H47.1379C61.5935 372.312 74.1008 375.014 84.6597 380.42C95.2186 385.825 103.389 393.43 109.171 403.234C114.954 413.039 117.845 424.729 117.845 438.305C117.845 451.755 114.954 463.445 109.171 473.376C103.389 483.18 95.2186 490.785 84.6597 496.19C74.1008 501.595 61.5935 504.298 47.1379 504.298Z" fill="white"/>
<path d="M174.108 372.312H206.539V504.298H174.108V372.312Z" fill="white"/>
<path d="M335.756 456.594V432.083H402.503C403.132 442.642 402.063 452.509 399.298 461.685C396.532 470.862 392.259 478.969 386.476 486.008C380.694 493.048 373.466 498.579 364.793 502.601C356.119 506.498 346.189 508.446 335.002 508.446C324.443 508.446 314.764 506.812 305.965 503.544C297.166 500.15 289.561 495.373 283.15 489.214C276.739 482.929 271.711 475.512 268.066 466.965C264.546 458.291 262.786 448.738 262.786 438.305C262.786 427.872 264.609 418.444 268.254 410.022C271.9 401.475 277.054 394.184 283.716 388.15C290.378 382.117 298.171 377.466 307.096 374.197C316.021 370.929 325.7 369.295 336.133 369.295C345.435 369.295 353.794 370.615 361.21 373.255C368.627 375.894 375.163 379.603 380.82 384.379C386.602 389.03 391.567 394.435 395.715 400.595L367.433 415.302C364.416 410.022 360.33 405.686 355.177 402.292C350.149 398.772 343.801 397.012 336.133 397.012C328.842 397.012 322.117 398.646 315.958 401.914C309.924 405.183 305.085 409.897 301.44 416.056C297.92 422.09 296.16 429.506 296.16 438.305C296.16 446.978 297.857 454.52 301.251 460.931C304.771 467.216 309.484 472.119 315.392 475.638C321.426 479.032 328.34 480.729 336.133 480.729C340.91 480.729 345.246 480.163 349.143 479.032C353.04 477.775 356.371 476.078 359.136 473.941C361.902 471.679 364.227 469.102 366.113 466.211C368.124 463.194 369.695 459.988 370.827 456.594H335.756Z" fill="white"/>
<path d="M459.72 372.312H492.151V504.298H459.72V372.312Z" fill="white"/>
<path d="M542.741 400.783V372.312H647.199V400.783H610.808V504.298H578.943V400.783H542.741Z" fill="white"/>
<path d="M699.416 478.844L701.679 454.52H767.106L769.18 478.844H699.416ZM733.921 420.77L715.443 463.382L716.951 470.359L700.547 504.298H664.534L733.921 364.016L803.496 504.298H767.295L751.456 471.679L752.588 463.571L733.921 420.77Z" fill="white"/>
<path d="M853.152 372.312H885.017V476.958H938V504.298H853.152V372.312Z" fill="white"/>
</svg>
